<svg width="53" height="50" viewBox="0 0 53 50" fill="none" xmlns="http://www.w3.org/2000/svg">
<path fill-rule="evenodd" clip-rule="evenodd" d="M4.8715 1.18665L2.59963 1.06278L1.66317 0.865112L1.47588 0.494156C1.47588 0.148247 1.70999 0 2.17886 0H25.6717C36.6802 0 44.4092 3.53491 48.9067 10.6291C51.4833 14.7326 52.7712 19.6025 52.7712 25.2385C52.7712 28.1805 52.3498 31.0229 51.4826 33.7665C50.4994 36.659 49.1409 39.2056 47.384 41.48C45.463 43.877 43.1212 45.7318 40.4273 47.0911C37.5461 48.4754 34.3141 49.1923 30.6837 49.1923H0.726074C0.234114 49.1923 0 49.019 0 48.7232C0 48.4016 0.351492 48.229 1.00701 48.229L6.74569 47.8587C7.63597 47.7342 8.26839 47.4621 8.57306 47.0918L9.15867 46.226C9.36969 45.6337 9.48707 44.7442 9.51016 43.5325V4.32624C9.51016 2.79368 8.69044 1.8541 7.09782 1.48315L4.8715 1.18665ZM17.5201 1.8541L17.3559 2.84309V46.3742C17.3559 46.8684 17.4495 47.2136 17.6368 47.3382L18.5739 47.4864H21.6655L28.8326 47.2143C30.753 46.9923 32.3924 46.6707 33.681 46.2253C34.9689 45.7318 36.187 45.0143 37.2408 44.1498C38.1779 43.3342 39.1381 42.1719 40.1926 40.6887C41.9487 38.2667 43.2136 35.1765 43.9865 31.3945C44.4547 28.9237 44.6895 26.5254 44.6895 24.2265C44.6895 22.1998 44.4085 20.0242 43.8229 17.6759C43.0032 14.2893 41.7615 11.323 40.0046 8.8014C36.6084 3.90722 31.0339 1.4845 23.328 1.4845H18.5733C18.0351 1.43373 17.6836 1.55761 17.5201 1.8541Z" fill="#1B1B1B"/>
</svg>
